<svg xmlns="http://www.w3.org/2000/svg" viewBox="0 0 256 256" role="img" aria-label="TPIP">
  <defs>
    <linearGradient id="bg" x1="0" x2="0" y1="0" y2="1">
      <stop offset="0%" stop-color="#fff7ef"/>
      <stop offset="100%" stop-color="#ffe9d6"/>
    </linearGradient>
  </defs>
  <rect x="12" y="12" width="232" height="232" rx="48" fill="url(#bg)"/>
  <ellipse cx="90" cy="56" rx="22" ry="44" fill="#fff4ea" stroke="#a46545" stroke-width="5"/>
  <ellipse cx="166" cy="56" rx="22" ry="44" fill="#fff4ea" stroke="#a46545" stroke-width="5"/>
  <ellipse cx="90" cy="64" rx="10" ry="26" fill="#ffc8a2"/>
  <ellipse cx="166" cy="64" rx="10" ry="26" fill="#ffc8a2"/>
  <ellipse cx="128" cy="138" rx="74" ry="70" fill="#fffaf5" stroke="#a46545" stroke-width="6"/>
  <circle cx="98" cy="130" r="6" fill="#5d3b2c"/>
  <circle cx="158" cy="130" r="6" fill="#5d3b2c"/>
  <ellipse cx="128" cy="146" rx="8" ry="6" fill="#d78866"/>
  <path d="M116 156c4 8 20 8 24 0" fill="none" stroke="#5d3b2c" stroke-width="4" stroke-linecap="round"/>
  <circle cx="83" cy="146" r="6" fill="#ffceb4"/>
  <circle cx="173" cy="146" r="6" fill="#ffceb4"/>
  <path d="M84 192c14 12 74 12 88 0" fill="none" stroke="#a46545" stroke-width="5" stroke-linecap="round"/>
</svg>
